<mxfile host="app.diagrams.net" agent="Mozilla/5.0 (Windows NT 10.0; Win64; x64) AppleWebKit/537.36 (KHTML, like Gecko) Chrome/138.0.0.0 Safari/537.36" version="28.0.4">
  <diagram name="Page-1" id="5TjFJNbgtK6tRQX0CHqg">
    <mxGraphModel dx="653" dy="875" grid="1" gridSize="10" guides="1" tooltips="1" connect="1" arrows="1" fold="1" page="1" pageScale="1" pageWidth="827" pageHeight="1169" math="0" shadow="0">
      <root>
        <mxCell id="0" />
        <mxCell id="1" parent="0" />
        <mxCell id="qPmPJSWQYSYvyi7kfRVx-4" value="" style="edgeStyle=orthogonalEdgeStyle;rounded=0;orthogonalLoop=1;jettySize=auto;html=1;" parent="1" source="qPmPJSWQYSYvyi7kfRVx-1" edge="1">
          <mxGeometry relative="1" as="geometry">
            <mxPoint x="390" y="170" as="targetPoint" />
          </mxGeometry>
        </mxCell>
        <mxCell id="qPmPJSWQYSYvyi7kfRVx-1" value="Program start" style="rounded=1;whiteSpace=wrap;html=1;" parent="1" vertex="1">
          <mxGeometry x="330" y="40" width="120" height="60" as="geometry" />
        </mxCell>
        <mxCell id="qPmPJSWQYSYvyi7kfRVx-6" value="" style="edgeStyle=orthogonalEdgeStyle;rounded=0;orthogonalLoop=1;jettySize=auto;html=1;" parent="1" source="qPmPJSWQYSYvyi7kfRVx-5" target="qPmPJSWQYSYvyi7kfRVx-1" edge="1">
          <mxGeometry relative="1" as="geometry" />
        </mxCell>
        <mxCell id="qPmPJSWQYSYvyi7kfRVx-8" value="previous data" style="edgeStyle=orthogonalEdgeStyle;rounded=0;orthogonalLoop=1;jettySize=auto;html=1;" parent="1" source="qPmPJSWQYSYvyi7kfRVx-5" target="qPmPJSWQYSYvyi7kfRVx-7" edge="1">
          <mxGeometry y="-10" relative="1" as="geometry">
            <mxPoint as="offset" />
          </mxGeometry>
        </mxCell>
        <mxCell id="_rqBkX1GEyzZLxkPlKRW-2" value="new data" style="edgeStyle=orthogonalEdgeStyle;rounded=0;orthogonalLoop=1;jettySize=auto;html=1;" edge="1" parent="1" source="qPmPJSWQYSYvyi7kfRVx-5" target="_rqBkX1GEyzZLxkPlKRW-1">
          <mxGeometry y="10" relative="1" as="geometry">
            <mxPoint as="offset" />
          </mxGeometry>
        </mxCell>
        <mxCell id="qPmPJSWQYSYvyi7kfRVx-5" value="main menu:&lt;br&gt;previous data&lt;br&gt;new data" style="shape=parallelogram;perimeter=parallelogramPerimeter;whiteSpace=wrap;html=1;fixedSize=1;" parent="1" vertex="1">
          <mxGeometry x="330" y="180" width="120" height="60" as="geometry" />
        </mxCell>
        <mxCell id="qPmPJSWQYSYvyi7kfRVx-10" value="" style="edgeStyle=orthogonalEdgeStyle;rounded=0;orthogonalLoop=1;jettySize=auto;html=1;" parent="1" source="qPmPJSWQYSYvyi7kfRVx-7" target="qPmPJSWQYSYvyi7kfRVx-9" edge="1">
          <mxGeometry relative="1" as="geometry" />
        </mxCell>
        <mxCell id="qPmPJSWQYSYvyi7kfRVx-7" value="&lt;div&gt;&lt;span style=&quot;background-color: transparent; color: light-dark(rgb(0, 0, 0), rgb(255, 255, 255));&quot;&gt;Insert name&lt;/span&gt;&lt;/div&gt;&lt;div&gt;&lt;span style=&quot;background-color: transparent; color: light-dark(rgb(0, 0, 0), rgb(255, 255, 255));&quot;&gt;&amp;nbsp;of timetable&lt;/span&gt;&lt;/div&gt;" style="shape=parallelogram;perimeter=parallelogramPerimeter;whiteSpace=wrap;html=1;fixedSize=1;" parent="1" vertex="1">
          <mxGeometry x="140" y="180" width="120" height="60" as="geometry" />
        </mxCell>
        <mxCell id="qPmPJSWQYSYvyi7kfRVx-16" value="no + error message" style="edgeStyle=orthogonalEdgeStyle;rounded=0;orthogonalLoop=1;jettySize=auto;html=1;" parent="1" source="qPmPJSWQYSYvyi7kfRVx-9" edge="1">
          <mxGeometry relative="1" as="geometry">
            <mxPoint x="300" y="210" as="targetPoint" />
          </mxGeometry>
        </mxCell>
        <mxCell id="qPmPJSWQYSYvyi7kfRVx-18" value="" style="edgeStyle=orthogonalEdgeStyle;rounded=0;orthogonalLoop=1;jettySize=auto;html=1;" parent="1" source="qPmPJSWQYSYvyi7kfRVx-9" target="qPmPJSWQYSYvyi7kfRVx-17" edge="1">
          <mxGeometry relative="1" as="geometry" />
        </mxCell>
        <mxCell id="qPmPJSWQYSYvyi7kfRVx-9" value="SQL&amp;nbsp;&lt;div&gt;connected?&lt;/div&gt;" style="rhombus;whiteSpace=wrap;html=1;" parent="1" vertex="1">
          <mxGeometry x="150" y="270" width="100" height="80" as="geometry" />
        </mxCell>
        <mxCell id="_rqBkX1GEyzZLxkPlKRW-7" style="edgeStyle=orthogonalEdgeStyle;rounded=0;orthogonalLoop=1;jettySize=auto;html=1;entryX=0;entryY=0.25;entryDx=0;entryDy=0;" edge="1" parent="1" source="qPmPJSWQYSYvyi7kfRVx-17" target="_rqBkX1GEyzZLxkPlKRW-5">
          <mxGeometry relative="1" as="geometry" />
        </mxCell>
        <mxCell id="qPmPJSWQYSYvyi7kfRVx-17" value="load timetable&lt;div&gt;&amp;nbsp;from sql&lt;/div&gt;" style="shape=parallelogram;perimeter=parallelogramPerimeter;whiteSpace=wrap;html=1;fixedSize=1;" parent="1" vertex="1">
          <mxGeometry x="140" y="382" width="120" height="60" as="geometry" />
        </mxCell>
        <mxCell id="_rqBkX1GEyzZLxkPlKRW-4" value="" style="edgeStyle=orthogonalEdgeStyle;rounded=0;orthogonalLoop=1;jettySize=auto;html=1;" edge="1" parent="1" source="_rqBkX1GEyzZLxkPlKRW-1" target="_rqBkX1GEyzZLxkPlKRW-3">
          <mxGeometry relative="1" as="geometry" />
        </mxCell>
        <mxCell id="_rqBkX1GEyzZLxkPlKRW-1" value="&lt;div&gt;insert data:&lt;/div&gt;choose a name&lt;span style=&quot;background-color: transparent; color: light-dark(rgb(0, 0, 0), rgb(255, 255, 255));&quot;&gt;&amp;nbsp;&lt;/span&gt;&lt;div&gt;&lt;span style=&quot;background-color: transparent; color: light-dark(rgb(0, 0, 0), rgb(255, 255, 255));&quot;&gt;insert amount of students&lt;/span&gt;&lt;/div&gt;" style="shape=parallelogram;perimeter=parallelogramPerimeter;whiteSpace=wrap;html=1;fixedSize=1;" vertex="1" parent="1">
          <mxGeometry x="510" y="180" width="120" height="60" as="geometry" />
        </mxCell>
        <mxCell id="_rqBkX1GEyzZLxkPlKRW-6" style="edgeStyle=orthogonalEdgeStyle;rounded=0;orthogonalLoop=1;jettySize=auto;html=1;entryX=0.5;entryY=0;entryDx=0;entryDy=0;" edge="1" parent="1" source="_rqBkX1GEyzZLxkPlKRW-3" target="_rqBkX1GEyzZLxkPlKRW-5">
          <mxGeometry relative="1" as="geometry" />
        </mxCell>
        <mxCell id="_rqBkX1GEyzZLxkPlKRW-3" value="Create Database" style="shape=parallelogram;perimeter=parallelogramPerimeter;whiteSpace=wrap;html=1;fixedSize=1;" vertex="1" parent="1">
          <mxGeometry x="510" y="280" width="120" height="60" as="geometry" />
        </mxCell>
        <mxCell id="_rqBkX1GEyzZLxkPlKRW-5" value="Main Menu:&lt;div&gt;Add teachers&lt;/div&gt;&lt;div&gt;Generate timetable&lt;/div&gt;&lt;div&gt;Change pupil amount&lt;/div&gt;" style="shape=parallelogram;perimeter=parallelogramPerimeter;whiteSpace=wrap;html=1;fixedSize=1;" vertex="1" parent="1">
          <mxGeometry x="330" y="370" width="150" height="120" as="geometry" />
        </mxCell>
      </root>
    </mxGraphModel>
  </diagram>
</mxfile>
